<svg xmlns="http://www.w3.org/2000/svg" width="22" height="66" viewBox="0 0 22 66" fill="none">
  <path d="M57.3492 36.2313C57.4884 35.2 57.558 34.1344 57.558 33C57.558 31.9 57.4884 30.8 57.3144 29.7688L64.3793 24.3375C64.6838 24.0897 64.8918 23.7452 64.9679 23.3629C65.0441 22.9805 64.9837 22.5839 64.797 22.2406L58.1148 10.8281C57.9181 10.4829 57.604 10.2176 57.2281 10.0791C56.8523 9.94071 56.439 9.93815 56.0615 10.0719L47.7436 13.3719C46.0035 12.0656 44.1589 10.9656 42.1056 10.1406L40.8527 1.40938C40.791 1.01589 40.5886 0.657284 40.282 0.398678C39.9755 0.140071 39.5852 -0.00138017 39.1821 1.01523e-05H25.8179C24.9826 1.01523e-05 24.3214 0.584385 24.1821 1.40938L22.9292 10.1406C20.8759 10.9656 18.9965 12.1 17.2912 13.3719L8.97334 10.0719C8.20768 9.79688 7.33761 10.0719 6.91998 10.8281L0.272655 22.2406C-0.144978 22.9625 -0.00576705 23.8563 0.690288 24.3375L7.75525 29.7688C7.58123 30.8 7.44202 31.9344 7.44202 33C7.44202 34.0656 7.51163 35.2 7.68564 36.2313L0.620682 41.6625C0.316242 41.9104 0.108225 42.2548 0.0320724 42.6371C-0.0440799 43.0195 0.0163443 43.4161 0.20305 43.7594L6.88518 55.1719C7.30281 55.9281 8.17288 56.1688 8.93854 55.9281L17.2564 52.6281C18.9965 53.9344 20.8411 55.0344 22.8944 55.8594L24.1473 64.5906C24.3214 65.4156 24.9826 66 25.8179 66H39.1821C40.0174 66 40.7134 65.4156 40.8179 64.5906L42.0708 55.8594C44.1241 55.0344 46.0035 53.9344 47.7088 52.6281L56.0267 55.9281C56.7923 56.2031 57.6624 55.9281 58.08 55.1719L64.7621 43.7594C65.1798 43.0031 65.0058 42.1438 64.3445 41.6625L57.3492 36.2313ZM32.5 45.375C25.6091 45.375 19.971 39.8063 19.971 33C19.971 26.1938 25.6091 20.625 32.5 20.625C39.3909 20.625 45.029 26.1938 45.029 33C45.029 39.8063 39.3909 45.375 32.5 45.375Z" fill="#7CB83F"/>
</svg>