<svg xmlns="http://www.w3.org/2000/svg" width="46" height="66" viewBox="0 0 46 66" fill="none">
  <path d="M42.5152 22C40.5915 22 39.0303 23.54 39.0303 25.4375V41.25H37.6364C33.0364 41.25 29.2727 44.9625 29.2727 49.5H26.4848C26.4848 43.89 30.7503 39.27 36.2424 38.5825V8.9375C36.2424 8.02582 35.8753 7.15148 35.2217 6.50682C34.5682 5.86216 33.6818 5.5 32.7576 5.5C31.8333 5.5 30.947 5.86216 30.2934 6.50682C29.6399 7.15148 29.2727 8.02582 29.2727 8.9375V30.25H26.4848V3.4375C26.4848 2.52582 26.1177 1.65148 25.4642 1.00682C24.8106 0.362164 23.9242 0 23 0C22.0758 0 21.1894 0.362164 20.5358 1.00682C19.8823 1.65148 19.5152 2.52582 19.5152 3.4375V30.25H16.7273V7.5625C16.7273 6.65082 16.3601 5.77648 15.7066 5.13182C15.053 4.48716 14.1667 4.125 13.2424 4.125C12.3182 4.125 11.4318 4.48716 10.7783 5.13182C10.1247 5.77648 9.75758 6.65082 9.75758 7.5625V33H6.9697V15.8125C6.9697 14.9008 6.60254 14.0265 5.94901 13.3818C5.29547 12.7372 4.40909 12.375 3.48485 12.375C2.56061 12.375 1.67422 12.7372 1.02069 13.3818C0.367153 14.0265 0 14.9008 0 15.8125V43.3125C0 55.8525 10.2873 66 23 66C35.7127 66 46 55.8525 46 43.3125V25.4375C46 23.54 44.4388 22 42.5152 22Z" fill="#7CB83F"/>
</svg>