<svg xmlns="http://www.w3.org/2000/svg" width="59" height="56" viewBox="0 0 59 56" fill="none">
  <path opacity="0.5" d="M51.5708 20.8814L55.2186 27.491L57.8531 32.2558C58.8565 34.0634 57.5746 36.2837 55.5075 36.3185L47.6787 36.4595L44.4903 30.745L42.0275 26.1738L51.5708 20.8814ZM16.0728 50.6186L24.5377 50.4669L24.5321 39.5669L12.8025 39.7549L11.2615 42.4239C10.5381 43.6768 10.3421 45.1658 10.7166 46.5632C11.091 47.9606 12.0052 49.152 13.2581 49.8754C14.1084 50.3663 15.0715 50.6074 16.0728 50.6186ZM4.90628 26.1574L2.86073 29.7004C2.35378 30.5795 2.10213 31.5827 2.13407 32.597C2.16601 33.6113 2.48027 34.5966 3.04152 35.4421L7.89035 42.8081L14.3543 31.6122L19.0783 34.3396L15.0851 19.4368L0.182273 23.43L4.90628 26.1574ZM22.5365 17.4402L28.4005 7.28355L26.2156 3.37664C25.4437 1.98618 24.0065 1.09345 22.4001 0.984802C20.6719 0.868853 18.9934 1.75787 18.107 3.29317L13.0885 11.9854L22.5365 17.4402ZM34.087 11.8894L29.2713 14.5574L44.107 18.8082L48.3442 3.99615L43.6166 6.62058L42.546 4.7112C41.6297 3.07991 39.97 2.02718 38.1064 1.92754L28.1834 1.33194L34.087 11.8894ZM40.9767 50.195L47.8751 50.0836C49.7969 50.0279 51.5572 48.9972 52.5118 47.3438L57.3257 39.0059L40.7885 39.2841L40.7012 33.8168L29.9785 44.916L41.0777 55.6387L40.9767 50.195Z" fill="#7CB83F"/>
</svg>